#!OML:ASF H:\ManfredObstacles\Project 1\Capture day 1\Session 1\Male.ASF
:FULLY-SPECIFIED
:DEGREES
587
root -2.22619 16.3779 -11.1118 -165.766 -11.3602 -176.802
lowerback -9.38611 -2.88414 1.26965
upperback 0.735619 -4.1063 1.43361
thorax 6.05098 -2.01554 0.191485
lowerneck -1.48499 -3.26898 -6.80516
upperneck -14.0871 -4.30596 12.7837
head -3.44902 -2.8609 5.19308
rclavicle -4.07509e-015 -2.98177e-015
rhumerus -26.9268 -16.4778 -84.8959
rradius 24.9444
rwrist 36.6436
rhand -1.05769 -6.48147
rfingers 7.12502
rthumb 24.5769 -34.9239
lclavicle -4.07509e-015 -2.98177e-015
lhumerus -19.1507 0.751304 93.5018
lradius 22.5843
lwrist -23.5159
lhand -9.29699 8.8425
lfingers 7.12502
lthumb 16.6605 38.1475
rfemur -35.6833 -7.16607 28.5847
rtibia 35.7929
rfoot -19.0955 16.4402
rtoes 28.7222
lfemur 0.230432 -7.72064 -12.1928
ltibia 24.9534
lfoot 18.6587 -13.3759
ltoes 0.679779
588
root -2.2326 16.3684 -11.0997 -165.81 -11.2907 -176.746
lowerback -9.26166 -2.83305 1.417
upperback 0.728096 -4.04971 1.40501
thorax 5.96027 -1.98354 0.0947977
lowerneck -1.41946 -3.29494 -6.7734
upperneck -14.107 -4.33748 12.8378
head -3.46161 -2.88317 5.20722
rclavicle 2.15681e-014 -1.59028e-015
rhumerus -27.1365 -17.3946 -84.4382
rradius 24.5604
rwrist 37.2405
rhand -1.01792 -6.44873
rfingers 7.12502
rthumb 24.615 -34.886
lclavicle 2.15681e-014 -1.59028e-015
lhumerus -19.3089 1.30206 93.2988
lradius 21.9756
lwrist -24.3677
lhand -9.10712 8.98802
lfingers 7.12502
lthumb 16.8433 38.2775
rfemur -35.6588 -7.16065 28.6228
rtibia 35.6654
rfoot -18.907 16.4541
rtoes 27.8826
lfemur 0.292606 -7.57315 -12.1673
ltibia 25.0222
lfoot 18.6759 -13.446
ltoes 1.19484
589
root -2.24054 16.3681 -11.0892 -165.789 -11.139 -176.742
lowerback -9.24621 -2.80376 1.48309
upperback 0.752909 -4.01564 1.37556
thorax 5.97108 -1.9636 0.0322828
lowerneck -1.42338 -3.27888 -6.69845
upperneck -14.1777 -4.31985 12.8551
head -3.48515 -2.88567 5.20246
rclavicle -8.34896e-015 7.95139e-015
rhumerus -27.1654 -18.2214 -84.0347
rradius 24.0415
rwrist 37.8331
rhand -1.02603 -6.45168
rfingers 7.12502
rthumb 24.6073 -34.89
lclavicle -8.34896e-015 7.95139e-015
lhumerus -19.3649 2.28411 92.9775
lradius 21.2591
lwrist -25.4686
lhand -9.00995 8.85896
lfingers 7.12502
lthumb 16.9369 38.1405
rfemur -35.6607 -7.04783 28.5823
rtibia 35.5231
rfoot -18.6781 16.4559
rtoes 27.4064
lfemur 0.240955 -7.51776 -12.227
ltibia 25.1183
lfoot 18.6301 -13.5134
ltoes 1.69914
590
root -2.24674 16.3894 -11.086 -165.682 -11.0244 -176.892
lowerback -9.35756 -2.83058 1.34877
upperback 0.793712 -4.03398 1.31734
thorax 6.08193 -1.97342 0.0366777
lowerneck -1.41505 -3.22513 -6.5533
upperneck -14.319 -4.2566 12.8425
head -3.53925 -2.87331 5.1791
rclavicle -1.47598e-014 9.54166e-015
rhumerus -27.1012 -19.0342 -83.681
rradius 23.4677
rwrist 38.5677
rhand -1.15644 -6.51459
rfingers 7.12502
rthumb 24.4823 -34.9699
lclavicle -1.47598e-014 9.54166e-015
lhumerus -19.4028 3.48977 92.5628
lradius 20.5742
lwrist -26.6373
lhand -8.6878 8.91775
lfingers 7.12502
lthumb 17.2469 38.1724
rfemur -35.6401 -6.84762 28.3424
rtibia 35.3813
rfoot -18.5357 16.3208
rtoes 27.4219
lfemur 0.00296922 -7.63594 -12.4339
ltibia 25.18
lfoot 18.4206 -13.7581
ltoes 0.570307
591
root -2.25202 16.4005 -11.0823 -165.659 -11.02 -176.939
lowerback -9.45179 -2.83146 1.3525
upperback 0.85849 -4.03454 1.27156
thorax 6.20004 -1.97029 -0.0201818
lowerneck -1.33108 -3.20507 -6.43489
upperneck -14.5637 -4.23724 12.8667
head -3.63067 -2.88985 5.17774
rclavicle 5.80451e-014 -2.78299e-015
rhumerus -27.1667 -20.0744 -83.2387
rradius 23.0482
rwrist 39.4606
rhand -1.23736 -6.49602
rfingers 7.12502
rthumb 24.4047 -34.9618
lclavicle 5.80451e-014 -2.78299e-015
lhumerus -19.4752 4.64929 92.1608
lradius 19.9091
lwrist -27.8026
lhand -8.39911 9.09174
lfingers 7.12502
lthumb 17.5248 38.3219
rfemur -35.575 -6.80167 28.2451
rtibia 35.2248
rfoot -18.3737 16.2646
rtoes 27.5028
lfemur -0.1293 -7.63014 -12.4912
ltibia 25.269
lfoot 18.2553 -14.1241
ltoes -0.792153
592
root -2.25824 16.4031 -11.0769 -165.783 -10.9821 -176.917
lowerback -9.43989 -2.8162 1.39959
upperback 0.951715 -4.01914 1.26015
thorax 6.28783 -1.95893 -0.0581854
lowerneck -1.16504 -3.18025 -6.41362
upperneck -14.8546 -4.20729 12.9288
head -3.74725 -2.90077 5.20854
rclavicle 2.127e-014 -1.21259e-014
rhumerus -27.3064 -20.9968 -82.7575
rradius 22.695
rwrist 40.161
rhand -1.21931 -6.46999
rfingers 7.12502
rthumb 24.422 -34.9334
lclavicle 2.127e-014 -1.21259e-014
lhumerus -19.6095 5.85183 91.7808
lradius 19.2761
lwrist -28.9949
lhand -8.37581 9.09909
lfingers 7.12502
lthumb 17.5472 38.3272
rfemur -35.405 -6.89263 28.2409
rtibia 35.0811
rfoot -18.1554 16.4029
rtoes 28.2315
lfemur -0.0442255 -7.49805 -12.4943
ltibia 25.3683
lfoot 18.1288 -14.4504
ltoes -1.74893
593
root -2.26354 16.4055 -11.0664 -165.915 -10.9028 -176.903
lowerback -9.43115 -2.85502 1.33591
upperback 1.08395 -4.06781 1.30343
thorax 6.43024 -1.98331 0.0117811
lowerneck -1.01861 -3.09163 -6.43247
upperneck -15.1428 -4.09459 12.9553
head -3.86851 -2.86682 5.23374
rclavicle -3.61788e-014 -1.31198e-014
rhumerus -27.3021 -21.5045 -82.4053
rradius 22.3503
rwrist 40.6421
rhand -1.1941 -6.49209
rfingers 7.12502
rthumb 24.4461 -34.9522
lclavicle -3.61788e-014 -1.31198e-014
lhumerus -19.7606 7.0363 91.4189
lradius 18.85
lwrist -29.9692
lhand -8.2389 9.16231
lfingers 7.12502
lthumb 17.679 38.3786
rfemur -35.2781 -6.83215 28.2013
rtibia 35.0028
rfoot -17.9303 16.359
rtoes 28.6043
lfemur 0.0660902 -7.43652 -12.5079
ltibia 25.4101
lfoot 18.2532 -14.4695
ltoes -1.28466
594
root -2.26819 16.405 -11.0471 -165.944 -10.871 -176.846
lowerback -9.45007 -2.912 1.34434
upperback 1.18071 -4.15051 1.35198
thorax 6.54639 -2.02284 0.0415374
lowerneck -1.0398 -3.03438 -6.35671
upperneck -15.2578 -4.02968 12.889
head -3.91019 -2.84465 5.20332
rclavicle 1.83379e-014 2.78299e-015
rhumerus -27.282 -22.225 -82.0686
rradius 22.0533
rwrist 41.5217
rhand -1.18514 -6.49514
rfingers 7.12502
rthumb 24.4547 -34.9541
lclavicle 1.83379e-014 2.78299e-015
lhumerus -19.8122 8.08239 91.0547
lradius 18.3094
lwrist -30.8845
lhand -8.11268 9.24308
lfingers 7.12502
lthumb 17.8004 38.4484
rfemur -35.2718 -6.48469 28.1443
rtibia 34.9422
rfoot -17.7691 15.9731
rtoes 28.6462
lfemur 0.0175634 -7.43966 -12.4483
ltibia 25.4428
lfoot 18.5451 -14.3659
ltoes -0.167287
595
root -2.27364 16.4093 -11.0292 -165.947 -10.79 -176.916
lowerback -9.39404 -2.92206 1.31478
upperback 1.21318 -4.1556 1.31042
thorax 6.54776 -2.0249 0.0160639
lowerneck -1.19051 -3.06669 -6.24823
upperneck -15.1649 -4.08219 12.8052
head -3.85711 -2.86617 5.15192
rclavicle -5.61567e-014 1.45113e-014
rhumerus -27.394 -23.1628 -81.6796
rradius 21.7632
rwrist 42.5223
rhand -1.24649 -6.52602
rfingers 7.12502
rthumb 24.3959 -34.9929
lclavicle -5.61567e-014 1.45113e-014
lhumerus -19.8528 9.022 90.6662
lradius 17.5466
lwrist -31.939
lhand -8.20589 9.19579
lfingers 7.12502
lthumb 17.7107 38.4092
rfemur -35.2393 -6.16363 27.939
rtibia 34.8599
rfoot -17.624 15.7148
rtoes 29.3638
lfemur -0.106857 -7.35095 -12.5482
ltibia 25.5514
lfoot 18.6224 -14.593
ltoes -0.978652
596
root -2.28079 16.4184 -11.018 -166.043 -10.6665 -177.101
lowerback -9.32384 -2.92384 1.15407
upperback 1.31777 -4.13308 1.25029
thorax 6.62544 -2.01626 0.046878
lowerneck -1.36456 -3.10647 -6.24422
upperneck -15.1034 -4.14321 12.7713
head -3.80463 -2.89062 5.13461
rclavicle 1.66979e-014 1.05356e-014
rhumerus -27.4085 -23.634 -81.4026
rradius 21.5252
rwrist 42.904
rhand -1.36083 -6.49376
rfingers 7.12502
rthumb 24.2863 -34.9754
lclavicle 1.66979e-014 1.05356e-014
lhumerus -19.9444 9.66699 90.3782
lradius 17.0309
lwrist -32.5253
lhand -8.36422 9.15229
lfingers 7.12502
lthumb 17.5584 38.3794
rfemur -35.1091 -6.16717 27.6815
rtibia 34.7916
rfoot -17.5226 15.7912
rtoes 30.061
lfemur -0.121197 -7.23411 -12.8047
ltibia 25.6831
lfoot 18.6157 -14.8884
ltoes -2.29293
597
root -2.28615 16.4224 -11.0001 -166.03 -10.5539 -177.129
lowerback -9.36058 -2.93203 1.07716
upperback 1.39755 -4.13877 1.27432
thorax 6.73838 -2.02086 0.10942
lowerneck -1.52821 -3.11104 -6.27495
upperneck -15.0762 -4.15656 12.761
head -3.76737 -2.89387 5.13174
rclavicle 6.20705e-014 -9.14409e-015
rhumerus -27.3746 -23.7311 -81.2407
rradius 21.4292
rwrist 42.975
rhand -1.29276 -6.46762
rfingers 7.12502
rthumb 24.3516 -34.9405
lclavicle 6.20705e-014 -9.14409e-015
lhumerus -20.0523 10.0566 90.1694
lradius 16.7682
lwrist -32.7065
lhand -8.48478 9.11414
lfingers 7.12502
lthumb 17.4423 38.3516
rfemur -35.1749 -6.10952 27.6191
rtibia 34.7437
rfoot -17.3375 15.8107
rtoes 30.4336
lfemur -0.260997 -7.17736 -12.8748
ltibia 25.7985
lfoot 18.7466 -14.8365
ltoes -1.69722
598
root -2.29156 16.418 -10.9848 -166.119 -10.4622 -177.126
lowerback -9.31555 -2.92528 1.06324
upperback 1.45459 -4.12745 1.26781
thorax 6.77375 -2.01506 0.112819
lowerneck -1.50063 -3.10643 -6.26278
upperneck -15.1496 -4.15383 12.7633
head -3.79458 -2.89908 5.1339
rclavicle -1.90833e-014 4.17448e-015
rhumerus -27.5151 -23.7916 -81.1104
rradius 21.4435
rwrist 43.0343
rhand -1.11002 -6.48897
rfingers 7.12502
rthumb 24.5267 -34.9382
lclavicle -1.90833e-014 4.17448e-015
lhumerus -20.2776 10.2489 89.9446
lradius 16.6085
lwrist -32.8381
lhand -8.51862 9.07448
lfingers 7.12502
lthumb 17.4098 38.3148
rfemur -35.115 -6.01506 27.5532
rtibia 34.7332
rfoot -17.1768 15.7917
rtoes 30.6972
lfemur -0.196313 -7.17203 -12.9398
ltibia 25.8526
lfoot 18.845 -14.6791
ltoes -1.06183
599
root -2.29662 16.4159 -10.9723 -166.161 -10.4439 -177.208
lowerback -9.33175 -2.92775 1.01495
upperback 1.49288 -4.12112 1.21405
thorax 6.82292 -2.01142 0.0824677
lowerneck -1.36856 -3.12538 -6.13952
upperneck -15.3131 -4.18852 12.6786
head -3.86854 -2.92933 5.09621
rclavicle 2.53947e-014 -8.34896e-015
rhumerus -27.7501 -23.8506 -81.0279
rradius 21.5357
rwrist 42.9148
rhand -1.09991 -6.47647
rfingers 7.12502
rthumb 24.5364 -34.9244
lclavicle 2.53947e-014 -8.34896e-015
lhumerus -20.5815 10.4117 89.6835
lradius 16.5423
lwrist -33.0389
lhand -8.51296 9.01263
lfingers 7.12502
lthumb 17.4152 38.2525
rfemur -35.0767 -5.90279 27.3922
rtibia 34.7327
rfoot -17.0859 15.6431
rtoes 30.2028
lfemur -0.197323 -7.21551 -13.0568
ltibia 25.8999
lfoot 18.9041 -14.6483
ltoes -0.874098
600
root -2.29967 16.4187 -10.9596 -166.139 -10.4996 -177.289
lowerback -9.39659 -2.96335 0.959705
upperback 1.52018 -4.16039 1.17807
thorax 6.89009 -2.03072 0.0652801
lowerneck -1.35995 -3.13472 -6.00525
upperneck -15.3695 -4.21153 12.5729
head -3.89174 -2.94613 5.04291
rclavicle -5.66536e-015 -1.13307e-014
rhumerus -27.9412 -23.7095 -81.0424
rradius 21.6667
rwrist 42.5562
rhand -1.27469 -6.50107
rfingers 7.12502
rthumb 24.3689 -34.9716
lclavicle -5.66536e-015 -1.13307e-014
lhumerus -20.8321 10.7667 89.3993
lradius 16.4464
lwrist -33.3952
lhand -8.43065 9.033
lfingers 7.12502
lthumb 17.4944 38.2658
rfemur -35.128 -5.87286 27.2783
rtibia 34.7264
rfoot -17.0122 15.4815
rtoes 29.6634
lfemur -0.305405 -7.26683 -13.1146
ltibia 25.9269
lfoot 19.0241 -14.7051
ltoes -0.100316
601
root -2.30247 16.4233 -10.9484 -166.118 -10.522 -177.299
lowerback -9.41322 -3.00556 0.947819
upperback 1.49474 -4.21734 1.20336
thorax 6.87543 -2.06004 0.0895505
lowerneck -1.24808 -3.09061 -6.1015
upperneck -15.458 -4.14766 12.6442
head -3.93857 -2.91987 5.08715
rclavicle 2.66868e-014 2.5842e-015
rhumerus -28.1227 -23.3202 -81.0473
rradius 21.7388
rwrist 42.09
rhand -1.46598 -6.48958
rfingers 7.12502
rthumb 24.1855 -34.9847
lclavicle 2.66868e-014 2.5842e-015
lhumerus -21.0986 11.3489 89.1477
lradius 16.3509
lwrist -33.8152
lhand -8.25192 9.19977
lfingers 7.12502
lthumb 17.6664 38.4172
rfemur -35.1771 -5.86474 27.2588
rtibia 34.6946
rfoot -16.8864 15.3931
rtoes 29.7844
lfemur -0.417675 -7.27482 -13.1071
ltibia 25.9562
lfoot 19.1058 -14.7407
ltoes 0.300568
